<?xml version="1.0" standalone="no"?>
<!DOCTYPE svg PUBLIC "-//W3C//DTD SVG 1.1//EN" "http://www.w3.org/Graphics/SVG/1.1/DTD/svg11.dtd"><svg t="1731658249525"
    class="icon" viewBox="0 0 1024 1024" version="1.1" xmlns="http://www.w3.org/2000/svg" p-id="16044"
    xmlns:xlink="http://www.w3.org/1999/xlink" width="200" height="200">
    <path
        d="M512 741.877551c-11.493878 0-20.897959-9.404082-20.897959-20.897959V303.020408c0-11.493878 9.404082-20.897959 20.897959-20.897959s20.897959 9.404082 20.897959 20.897959v417.959184c0 11.493878-9.404082 20.897959-20.897959 20.897959z"
        fill="#e22c14" p-id="16045" stroke="#e22c14" stroke-width="30"></path>
    <path
        d="M681.273469 493.191837c-5.22449 0-10.44898-2.089796-14.628571-6.269388L497.371429 317.64898c-8.359184-8.359184-8.359184-21.420408 0-29.779592 8.359184-8.359184 21.420408-8.359184 29.779591 0l169.27347 169.273469c8.359184 8.359184 8.359184 21.420408 0 29.779592-4.179592 4.179592-9.404082 6.269388-15.151021 6.269388z"
        fill="#e22c14" p-id="16046" stroke="#e22c14" stroke-width="30"></path>
    <path
        d="M342.726531 493.191837c-5.22449 0-10.44898-2.089796-14.628572-6.269388-8.359184-8.359184-8.359184-21.420408 0-29.779592l169.27347-169.273469c8.359184-8.359184 21.420408-8.359184 29.779591 0 8.359184 8.359184 8.359184 21.420408 0 29.779592L357.355102 487.444898c-4.179592 3.657143-9.404082 5.746939-14.628571 5.746939z"
        fill="#e22c14" p-id="16047" stroke="#e22c14" stroke-width="30"></path>
    <path
        d="M512 929.959184c-230.4 0-417.959184-187.559184-417.959184-417.959184s187.559184-417.959184 417.959184-417.959184 417.959184 187.559184 417.959184 417.959184-187.559184 417.959184-417.959184 417.959184z m0-794.122449c-207.412245 0-376.163265 168.75102-376.163265 376.163265s168.75102 376.163265 376.163265 376.163265 376.163265-168.75102 376.163265-376.163265-168.75102-376.163265-376.163265-376.163265z"
        fill="#e22c14" p-id="16048" stroke="#e22c14" stroke-width="30"></path>
</svg>